<svg xmlns="http://www.w3.org/2000/svg" version="1.1" xmlns:xlink="http://www.w3.org/1999/xlink" xmlns:svgjs="http://svgjs.dev/svgjs" width="1440" height="560" preserveAspectRatio="none" viewBox="0 0 1440 560"><g mask="url(&quot;#SvgjsMask1260&quot;)" fill="none"><rect width="1440" height="560" x="0" y="0" fill="rgba(40, 40, 40, 1)"></rect><path d="M46.73 -26.7L187.9 54.8L187.9 217.8L46.73 299.3L-94.44 217.8L-94.44 54.8zM329.06 462.3L470.23 543.8L470.23 706.8L329.06 788.3L187.9 706.8L187.9 543.8zM893.73 462.3L1034.89 543.8L1034.89 706.8L893.73 788.3L752.56 706.8L752.56 543.8zM1317.23 217.8L1458.39 299.3L1458.39 462.3L1317.23 543.8L1176.06 462.3L1176.06 299.3z" stroke="rgba(207, 211, 215, 0.1)" stroke-width="2"></path><path d="M30.43 -26.7 a16.3 16.3 0 1 0 32.6 0 a16.3 16.3 0 1 0 -32.6 0zM171.6 54.8 a16.3 16.3 0 1 0 32.6 0 a16.3 16.3 0 1 0 -32.6 0zM171.6 217.8 a16.3 16.3 0 1 0 32.6 0 a16.3 16.3 0 1 0 -32.6 0zM30.43 299.3 a16.3 16.3 0 1 0 32.6 0 a16.3 16.3 0 1 0 -32.6 0zM-110.74 217.8 a16.3 16.3 0 1 0 32.6 0 a16.3 16.3 0 1 0 -32.6 0zM-110.74 54.8 a16.3 16.3 0 1 0 32.6 0 a16.3 16.3 0 1 0 -32.6 0zM312.76 462.3 a16.3 16.3 0 1 0 32.6 0 a16.3 16.3 0 1 0 -32.6 0zM453.93 543.8 a16.3 16.3 0 1 0 32.6 0 a16.3 16.3 0 1 0 -32.6 0zM453.93 706.8 a16.3 16.3 0 1 0 32.6 0 a16.3 16.3 0 1 0 -32.6 0zM312.76 788.3 a16.3 16.3 0 1 0 32.6 0 a16.3 16.3 0 1 0 -32.6 0zM171.6 706.8 a16.3 16.3 0 1 0 32.6 0 a16.3 16.3 0 1 0 -32.6 0zM171.6 543.8 a16.3 16.3 0 1 0 32.6 0 a16.3 16.3 0 1 0 -32.6 0zM877.43 462.3 a16.3 16.3 0 1 0 32.6 0 a16.3 16.3 0 1 0 -32.6 0zM1018.59 543.8 a16.3 16.3 0 1 0 32.6 0 a16.3 16.3 0 1 0 -32.6 0zM1018.59 706.8 a16.3 16.3 0 1 0 32.6 0 a16.3 16.3 0 1 0 -32.6 0zM877.43 788.3 a16.3 16.3 0 1 0 32.6 0 a16.3 16.3 0 1 0 -32.6 0zM736.26 706.8 a16.3 16.3 0 1 0 32.6 0 a16.3 16.3 0 1 0 -32.6 0zM736.26 543.8 a16.3 16.3 0 1 0 32.6 0 a16.3 16.3 0 1 0 -32.6 0zM1300.93 217.8 a16.3 16.3 0 1 0 32.6 0 a16.3 16.3 0 1 0 -32.6 0zM1442.09 299.3 a16.3 16.3 0 1 0 32.6 0 a16.3 16.3 0 1 0 -32.6 0zM1442.09 462.3 a16.3 16.3 0 1 0 32.6 0 a16.3 16.3 0 1 0 -32.6 0zM1300.93 543.8 a16.3 16.3 0 1 0 32.6 0 a16.3 16.3 0 1 0 -32.6 0zM1159.76 462.3 a16.3 16.3 0 1 0 32.6 0 a16.3 16.3 0 1 0 -32.6 0zM1159.76 299.3 a16.3 16.3 0 1 0 32.6 0 a16.3 16.3 0 1 0 -32.6 0z" fill="rgba(207, 211, 215, 0.1)"></path><path d="M0 -182L157.62 -91L157.62 91L0 182L-157.62 91L-157.62 -91zM157.62 91L315.24 182L315.24 364L157.62 455L0 364L0 182zM0 364L157.62 455L157.62 637L0 728L-157.62 637L-157.62 455zM315.24 -182L472.86 -91L472.86 91L315.24 182L157.62 91L157.62 -91zM472.86 91L630.48 182L630.48 364L472.86 455L315.24 364L315.24 182zM315.24 364L472.86 455L472.86 637L315.24 728L157.62 637L157.62 455zM630.48 -182L788.11 -91L788.11 91L630.48 182L472.86 91L472.86 -91zM788.11 91L945.73 182L945.73 364L788.11 455L630.48 364L630.48 182zM630.48 364L788.11 455L788.11 637L630.48 728L472.86 637L472.86 455zM945.73 -182L1103.35 -91L1103.35 91L945.73 182L788.11 91L788.11 -91zM1103.35 91L1260.97 182L1260.97 364L1103.35 455L945.73 364L945.73 182zM945.73 364L1103.35 455L1103.35 637L945.73 728L788.11 637L788.11 455zM1260.97 -182L1418.59 -91L1418.59 91L1260.97 182L1103.35 91L1103.35 -91zM1418.59 91L1576.21 182L1576.21 364L1418.59 455L1260.97 364L1260.97 182zM1260.97 364L1418.59 455L1418.59 637L1260.97 728L1103.35 637L1103.35 455z" stroke="rgba(40, 40, 40, 1)" stroke-width="2"></path></g><defs><mask id="SvgjsMask1260"><rect width="1440" height="560" fill="#ffffff"></rect></mask></defs></svg>