<?xml version="1.0" encoding="utf-8"?>
<!-- Generator: Adobe Illustrator 23.0.3, SVG Export Plug-In . SVG Version: 6.00 Build 0)  -->
<svg version="1.1" id="Layer_1" xmlns="http://www.w3.org/2000/svg" xmlns:xlink="http://www.w3.org/1999/xlink" x="0px" y="0px"
	 viewBox="0 0 100 100" enable-background="new 0 0 100 100" xml:space="preserve">
<path d="M63.64,69.35h10.8c0.83,0,1.5-0.67,1.5-1.5v-5.36c0-0.01,0-0.03,0-0.04s0-0.03,0-0.04v-5.36c0-0.83-0.67-1.5-1.5-1.5h-5.24
	c-0.01,0-0.02,0-0.03,0s-0.02,0-0.03,0h-5.49c-0.83,0-1.5,0.67-1.5,1.5v10.8C62.14,68.68,62.81,69.35,63.64,69.35z M65.14,63.95
	h2.52v2.4h-2.52V63.95z M70.66,66.35v-2.4h2.28v2.4H70.66z M72.94,60.95h-2.28v-2.4h2.28V60.95z M67.66,58.55v2.4h-2.52v-2.4H67.66z
	"/>
<path d="M84.21,8.32H15.79c-0.83,0-1.5,0.67-1.5,1.5v24.71c0,0.83,0.67,1.5,1.5,1.5h6.84v3.59h-6.84c-0.83,0-1.5,0.67-1.5,1.5v5.86
	c0,0.83,0.67,1.5,1.5,1.5h4.52v34.34h-4.52c-0.83,0-1.5,0.67-1.5,1.5v5.86c0,0.83,0.67,1.5,1.5,1.5h68.41c0.83,0,1.5-0.67,1.5-1.5
	v-5.86c0-0.83-0.67-1.5-1.5-1.5h-4.52V48.48h4.52c0.83,0,1.5-0.67,1.5-1.5v-5.86c0-0.83-0.67-1.5-1.5-1.5h-6.84v-3.59h6.84
	c0.83,0,1.5-0.67,1.5-1.5V9.82C85.71,8.99,85.04,8.32,84.21,8.32z M32.34,39.62v-3.59h35.31v3.59H32.34z M64.02,32.38H34.34V11.59
	h29.68V32.38z M17.29,11.32h14.05v21.71H17.29V11.32z M25.63,36.03h3.71v3.59h-3.71V36.03z M82.71,88.68H17.29v-2.86h4.52h19.68
	h17.02h19.68h4.52V88.68z M42.99,71.35h10.47c0.83,0,1.5-0.67,1.5-1.5s-0.67-1.5-1.5-1.5H42.99v-8.52h14.02v22.99H42.99V71.35z
	 M76.69,82.82H60.01V58.33c0-0.83-0.67-1.5-1.5-1.5H41.49c-0.83,0-1.5,0.67-1.5,1.5v24.49H23.31V48.48h53.38V82.82z M82.71,45.48
	h-4.52H21.81h-4.52v-2.86h65.41V45.48z M74.37,39.62h-3.71v-3.59h3.71V39.62z M82.71,33.03H67.02V11.32h15.69V33.03z"/>
<path d="M24.55,62.47v5.38c0,0.83,0.67,1.5,1.5,1.5h10.8c0.83,0,1.5-0.67,1.5-1.5v-10.8c0-0.83-0.67-1.5-1.5-1.5h-5.37
	c-0.01,0-0.02,0-0.03,0s-0.02,0-0.03,0h-5.36c-0.83,0-1.5,0.67-1.5,1.5v5.38c0,0.01,0,0.01,0,0.02S24.55,62.46,24.55,62.47z
	 M27.55,63.95h2.4v2.4h-2.4V63.95z M32.95,66.35v-2.4h2.4v2.4H32.95z M35.35,60.95h-2.4v-2.4h2.4V60.95z M29.95,58.55v2.4h-2.4v-2.4
	H29.95z"/>
<path d="M25.88,29.63h-4.85v-7.46c0-0.83-0.67-1.5-1.5-1.5s-1.5,0.67-1.5,1.5v8.96c0,0.83,0.67,1.5,1.5,1.5h6.35
	c0.83,0,1.5-0.67,1.5-1.5S26.71,29.63,25.88,29.63z"/>
<path d="M73.87,15.53h4.85v7.46c0,0.83,0.67,1.5,1.5,1.5s1.5-0.67,1.5-1.5v-8.96c0-0.83-0.67-1.5-1.5-1.5h-6.35
	c-0.83,0-1.5,0.67-1.5,1.5S73.04,15.53,73.87,15.53z"/>
<path d="M42.42,29.83c0.25,0.16,0.53,0.24,0.82,0.24c0.21,0,0.42-0.04,0.61-0.13l11.89-5.29c0.5-0.22,0.84-0.7,0.89-1.25
	c0.04-0.55-0.21-1.07-0.67-1.38l-11.89-7.89c-0.46-0.31-1.05-0.33-1.54-0.07c-0.49,0.26-0.79,0.77-0.79,1.32v13.18
	C41.74,29.08,41.99,29.56,42.42,29.83z M44.74,18.19l7.29,4.83l-7.29,3.24V18.19z"/>
</svg>
